# File created by Blade
# Date/Time:  Wed Jan 21 15:23:43 2015
# Frame Rate: 120.000 fps
#------------------------------------------------------
:FULLY-SPECIFIED
:DEGREES
1273
root 32.893664 28.072222 -18.481930 -162.219777 1.155443 -166.139487
Spine 4.830663 -1.587584 13.505619
Head -19.239097 8.488379 -0.227319
LeftShoulder -6.083382 -25.315957 -1.469738
LeftArm -24.390533 39.896464 -89.357564
LeftForeArm 15.863011 -0.000000 27.414655
LeftHand 0.834282 -0.000000 -4.531624
LeftHandThumb1 -26.253704 0.000000 33.147579
RightShoulder -2.857905 -10.966236 3.032344
RightArm 16.562205 -25.058612 57.778400
RightForeArm -36.440537 -0.000000 60.811215
RightHand 4.020074 -0.000000 2.090234
RightHandThumb1 -24.326973 -0.000000 -32.862282
LeftUpLeg -9.819145 34.669013 46.264919
LeftLeg -3.375157 -0.000000 0.000000
LeftFoot -9.785189 16.399179 -17.251686
LeftToeBase 39.570111 -0.000000 -0.000000
RightUpLeg -57.694968 -16.761039 23.584311
RightLeg 72.474333 -0.000000 -0.000000
RightFoot -52.007458 -22.347246 22.457796
RightToeBase 23.263196 -0.000000 -0.000000
1274
root 32.871128 28.090815 -18.466281 -162.170596 1.198318 -166.140511
Spine 4.773736 -1.666185 13.535656
Head -19.292224 8.535107 -0.271893
LeftShoulder -6.123051 -25.289161 -1.459584
LeftArm -24.384623 39.914908 -89.406882
LeftForeArm 15.756170 -0.000000 27.310725
LeftHand 0.905269 -0.000000 -4.425039
LeftHandThumb1 -26.253704 0.000000 33.147579
RightShoulder -2.781779 -10.980986 2.976034
RightArm 16.519013 -25.028244 57.878086
RightForeArm -36.526683 -0.000000 60.825599
RightHand 4.016668 -0.000000 2.062949
RightHandThumb1 -24.326973 -0.000000 -32.862282
LeftUpLeg -9.873276 34.693002 46.201391
LeftLeg -3.338972 -0.000000 0.000000
LeftFoot -9.799558 16.398322 -17.292232
LeftToeBase 39.612458 -0.000000 -0.000000
RightUpLeg -57.707584 -16.702469 23.543684
RightLeg 72.359535 -0.000000 -0.000000
RightFoot -51.918922 -22.371047 22.420109
RightToeBase 23.346626 -0.000000 -0.000000
1275
root 32.848739 28.109281 -18.451264 -162.067295 1.198328 -166.117384
Spine 4.641123 -1.643645 13.631715
Head -19.332020 8.513794 -0.340740
LeftShoulder -6.047001 -25.286532 -1.506238
LeftArm -24.435621 39.892736 -89.495739
LeftForeArm 15.754472 -0.000000 27.208431
LeftHand 0.959278 -0.000000 -4.307972
LeftHandThumb1 -26.253704 0.000000 33.147579
RightShoulder -2.874260 -10.998111 2.956237
RightArm 16.529500 -25.062077 57.881684
RightForeArm -36.605106 0.000000 60.821523
RightHand 4.038452 -0.000000 2.035388
RightHandThumb1 -24.326973 -0.000000 -32.862282
LeftUpLeg -10.011304 34.710344 46.136775
LeftLeg -3.286927 -0.000000 0.000000
LeftFoot -9.834920 16.421285 -17.327819
LeftToeBase 39.576270 -0.000000 -0.000000
RightUpLeg -57.775813 -16.685459 23.561268
RightLeg 72.235961 -0.000000 -0.000000
RightFoot -51.854797 -22.455845 22.350677
RightToeBase 23.584897 -0.000000 -0.000000
1276
root 32.828039 28.124666 -18.435047 -162.067033 1.219262 -166.136650
Spine 4.673617 -1.773071 13.637871
Head -19.491708 8.576119 -0.388550
LeftShoulder -6.097298 -25.377988 -1.462608
LeftArm -24.544061 39.877206 -89.595712
LeftForeArm 15.725100 -0.000000 27.160702
LeftHand 0.921898 -0.000000 -4.280876
LeftHandThumb1 -26.253704 0.000000 33.147579
RightShoulder -2.803053 -10.937493 2.920375
RightArm 16.500197 -25.087277 57.923992
RightForeArm -36.514605 -0.000000 60.840572
RightHand 4.085312 -0.000000 2.266114
RightHandThumb1 -24.326973 -0.000000 -32.862282
LeftUpLeg -10.055267 34.656016 46.084530
LeftLeg -3.227447 -0.000000 0.000000
LeftFoot -9.856582 16.424489 -17.354973
LeftToeBase 39.518949 -0.000000 -0.000000
RightUpLeg -57.774806 -16.698291 23.520545
RightLeg 72.151409 -0.000000 -0.000000
RightFoot -51.726240 -22.352036 22.373267
RightToeBase 23.404419 -0.000000 -0.000000
1277
root 32.807074 28.139530 -18.418180 -162.009620 1.265055 -166.171101
Spine 4.631239 -1.816599 13.611994
Head -19.596990 8.658965 -0.419909
LeftShoulder -6.117619 -25.407718 -1.443890
LeftArm -24.564366 39.841215 -89.628656
LeftForeArm 15.752840 -0.000000 27.087219
LeftHand 0.926898 0.000000 -4.293477
LeftHandThumb1 -26.253704 0.000000 33.147579
RightShoulder -2.777902 -10.876832 2.916511
RightArm 16.432629 -25.115737 57.960840
RightForeArm -36.515057 0.000000 60.878590
RightHand 4.060948 -0.000000 2.085925
RightHandThumb1 -24.326973 -0.000000 -32.862282
LeftUpLeg -10.125577 34.660336 45.988071
LeftLeg -3.180969 -0.000000 0.000000
LeftFoot -9.880488 16.438549 -17.411577
LeftToeBase 39.468214 -0.000000 -0.000000
RightUpLeg -57.822158 -16.664904 23.464401
RightLeg 72.070103 -0.000000 -0.000000
RightFoot -51.636420 -22.321281 22.344486
RightToeBase 23.447989 -0.000000 -0.000000
1278
root 32.785133 28.152368 -18.402928 -161.960996 1.319850 -166.204087
Spine 4.591298 -1.802272 13.587413
Head -19.675234 8.623905 -0.409108
LeftShoulder -6.078715 -25.400607 -1.458498
LeftArm -24.550122 39.820362 -89.638335
LeftForeArm 15.740273 -0.000000 27.020034
LeftHand 0.969883 0.000000 -4.316754
LeftHandThumb1 -26.253704 0.000000 33.147579
RightShoulder -2.785123 -10.865526 2.934636
RightArm 16.381508 -25.113479 57.981219
RightForeArm -36.519390 -0.000000 60.931940
RightHand 3.990668 -0.000000 1.968034
RightHandThumb1 -24.326973 -0.000000 -32.862282
LeftUpLeg -10.166493 34.688047 45.898991
LeftLeg -3.158390 -0.000000 0.000000
LeftFoot -9.891859 16.429815 -17.404559
LeftToeBase 39.486936 -0.000000 -0.000000
RightUpLeg -57.859316 -16.636427 23.403517
RightLeg 71.994809 -0.000000 -0.000000
RightFoot -51.553582 -22.337185 22.293774
RightToeBase 23.440250 -0.000000 -0.000000
1279
root 32.763285 28.163548 -18.386434 -161.916870 1.373771 -166.260462
Spine 4.564990 -1.805285 13.529307
Head -19.761210 8.595752 -0.394244
LeftShoulder -6.052806 -25.429363 -1.455420
LeftArm -24.574209 39.816993 -89.664665
LeftForeArm 15.703864 -0.000000 26.969515
LeftHand 0.970442 -0.000000 -4.272636
LeftHandThumb1 -26.253704 0.000000 33.147579
RightShoulder -2.783973 -10.858994 2.958538
RightArm 16.348866 -25.075521 58.007948
RightForeArm -36.596835 -0.000000 60.987625
RightHand 3.949188 -0.000000 1.999398
RightHandThumb1 -24.326973 -0.000000 -32.862282
LeftUpLeg -10.217832 34.709639 45.782373
LeftLeg -3.127379 -0.000000 0.000000
LeftFoot -9.922274 16.413911 -17.420093
LeftToeBase 39.489935 -0.000000 -0.000000
RightUpLeg -57.910499 -16.618330 23.321892
RightLeg 71.944263 -0.000000 -0.000000
RightFoot -51.470455 -22.326486 22.232420
RightToeBase 23.492187 -0.000000 -0.000000
1280
root 32.743247 28.173918 -18.372646 -161.887232 1.410360 -166.286965
Spine 4.540232 -1.825646 13.511443
Head -19.836657 8.601030 -0.378852
LeftShoulder -6.022938 -25.429482 -1.461957
LeftArm -24.571703 39.788434 -89.669672
LeftForeArm 15.676204 -0.000000 26.916382
LeftHand 0.996233 -0.000000 -4.238064
LeftHandThumb1 -26.253704 0.000000 33.147579
RightShoulder -2.773079 -10.856136 2.980821
RightArm 16.305700 -25.043728 58.011631
RightForeArm -36.603846 -0.000000 61.048226
RightHand 3.923194 0.000000 1.978700
RightHandThumb1 -24.326973 -0.000000 -32.862282
LeftUpLeg -10.257354 34.732519 45.708633
LeftLeg -3.101426 -0.000000 0.000000
LeftFoot -9.946341 16.383877 -17.435242
LeftToeBase 39.536076 -0.000000 -0.000000
RightUpLeg -57.938302 -16.613958 23.269657
RightLeg 71.888152 -0.000000 -0.000000
RightFoot -51.390517 -22.315598 22.171182
RightToeBase 23.536505 -0.000000 -0.000000
1281
root 32.724398 28.183505 -18.357898 -161.850795 1.442545 -166.315432
Spine 4.511292 -1.833863 13.485717
Head -19.899450 8.613274 -0.354219
LeftShoulder -5.991428 -25.459049 -1.438399
LeftArm -24.619498 39.757265 -89.728065
LeftForeArm 15.731592 -0.000000 26.893682
LeftHand 0.657929 -0.000000 -4.052274
LeftHandThumb1 -26.253704 0.000000 33.147579
RightShoulder -2.767237 -10.892978 3.006799
RightArm 16.311911 -24.998605 57.986155
RightForeArm -36.555097 -0.000000 61.086180
RightHand 3.927989 0.000000 2.001006
RightHandThumb1 -24.326973 -0.000000 -32.862282
LeftUpLeg -10.300992 34.750005 45.631973
LeftLeg -3.090650 -0.000000 0.000000
LeftFoot -9.951699 16.369867 -17.438666
LeftToeBase 39.564183 -0.000000 -0.000000
RightUpLeg -57.990058 -16.616698 23.231512
RightLeg 71.845104 -0.000000 -0.000000
RightFoot -51.263087 -22.151282 22.229633
RightToeBase 23.238299 -0.000000 -0.000000
1282
root 32.706663 28.190611 -18.344146 -161.831494 1.480125 -166.327145
Spine 4.509999 -1.859159 13.487511
Head -19.976037 8.628409 -0.371747
LeftShoulder -5.990918 -25.440721 -1.437772
LeftArm -24.555522 39.772087 -89.713925
LeftForeArm 15.581428 -0.000000 26.789181
LeftHand 0.929466 0.000000 -4.206802
LeftHandThumb1 -26.253704 0.000000 33.147579
RightShoulder -2.735324 -10.885245 2.989158
RightArm 16.281560 -24.977134 58.011437
RightForeArm -36.481299 -0.000000 61.105403
RightHand 3.937793 0.000000 1.997430
RightHandThumb1 -24.326973 -0.000000 -32.862282
LeftUpLeg -10.303483 34.739547 45.597802
LeftLeg -3.094760 -0.000000 0.000000
LeftFoot -9.967320 16.372484 -17.455547
LeftToeBase 39.577586 -0.000000 -0.000000
RightUpLeg -58.015200 -16.614448 23.195703
RightLeg 71.807357 -0.000000 -0.000000
RightFoot -51.222231 -22.227878 22.140734
RightToeBase 23.473396 -0.000000 -0.000000
